# xmcd
#
# Track frame offsets:
#	150
#	13097
#	26205
#	39352
#	50115
#	62865
#	74875
#	89750
#	103037
#	115347
#	125270
#	137707
#	149372
#	158267
#	169197
#	184182
#	202335
#	214822
#
# Disc length: 3083 seconds
#
# Revision: 3
# Processed by: cddbd v1.5.2PL0 Copyright (c) Steve Scherf et al.
# Submitted via: audiograbber 1.83.01
#
DISCID=1c0c0912
DTITLE=Various Artist - The Best Of Bluegrass - 80 Years Of American Music
DYEAR=2004
DGENRE=Bluegrass
TTITLE0=Charlie Poole And The North Carolina Ramblers - Don't Let Your Deal Go 
TTITLE0=Down Blues
TTITLE1=The Carter Family - Cannon Ball Blues
TTITLE2=Roy Acuff And His Crazy Tennesseans - Great Speckle Bird
TTITLE3=Roy Hall And His Blue Ridge Entertainers - Orange Blossom Special
TTITLE4=The Coon Creek Girls - Pretty Polly
TTITLE5=Molly O'Day And The Cumberland Mountain Folks - Poor Ellen Smith
TTITLE6=Bill Monroe And His Blue Grass Boys - Can't You Hear Me Callin'
TTITLE7=The Stanley Brothers And The Clinch Mountain Boys - I'm A Man Of Consta
TTITLE7=nt Sorrow
TTITLE8=Lester Flatt, Earl Scruggs And The Foggy Mountain Boys - Don't Get Abov
TTITLE8=e Your Raising
TTITLE9=Joe Maphis (King Of The Strings) - Twin Banjo Special
TTITLE10=Jim and Jesse And The Virginia Boys - Cotton Mill Man
TTITLE11=The Byrds - Pretty Boy Floyd
TTITLE12=Grandpa Jones - Mountain Dew
TTITLE13=Ricky Skaggs - Uncle Pen
TTITLE14=The O'Kanes - If I Could Be There
TTITLE15=Edgar Meyer - Big Country (With Béla Fleck And Mike Marshal)
TTITLE16=Patty Loveless - Daniel Prayed
TTITLE17=Dixie Chicks - Tortured, Tangled Hearts
EXTD=
EXTT0=
EXTT1=
EXTT2=
EXTT3=
EXTT4=
EXTT5=
EXTT6=
EXTT7=
EXTT8=
EXTT9=
EXTT10=
EXTT11=
EXTT12=
EXTT13=
EXTT14=
EXTT15=
EXTT16=
EXTT17=
PLAYORDER=
